<?xml version="1.0" encoding="utf-8"?>
<!-- Generator: Adobe Illustrator 16.0.4, SVG Export Plug-In . SVG Version: 6.00 Build 0)  -->
<!DOCTYPE svg PUBLIC "-//W3C//DTD SVG 1.1//EN" "http://www.w3.org/Graphics/SVG/1.1/DTD/svg11.dtd">
<svg version="1.1" xmlns="http://www.w3.org/2000/svg" xmlns:xlink="http://www.w3.org/1999/xlink" x="0px" y="0px" width="180px"
	 height="180px" viewBox="0 0 180 180" enable-background="new 0 0 180 180" xml:space="preserve">
<g id="Scholar">
</g>
<g id="Research">
</g>
<g id="Apply">
</g>
<g id="MILE">
</g>
<g id="Scholarship">
</g>
<g id="Brunch">
</g>
<g id="Welcome">
</g>
<g id="Fellowship">
</g>
<g id="Promise_Fund">
	<g>
		<circle fill="#F38B00" cx="90.93" cy="89.672" r="84.718"/>
	</g>
	<path fill-rule="evenodd" clip-rule="evenodd" fill="#FFFFFF" d="M130.419,82.415c0,0,4.067,62.263-35.628,65.29
		c-0.29,1.33-1.1,4.088-2.835,4.088c-1.727,0-2.666-2.734-3.022-4.072c-39.909-2.811-35.307-65.306-35.307-65.306
		S88.252,95.112,130.419,82.415z M96.119,44.282c-0.802-3.963-0.725-10.488,5.242-17.361c0,0-1.499,0.543-4.078,1.096
		c-5.798,1.243-6.733-1.373-7.934,1.285c-2.538,5.613-2.756,10.798-2.209,14.844C37.469,44.818,49.172,75.39,49.172,75.39
		s44.422,15.114,85.158-0.922C134.508,65.011,139.838,46.145,96.119,44.282z M70.953,63.645l-7.579-4.884l-8.079,3.084l7.58,4.884
		L70.953,63.645z M89.75,63.944l-8.018-4.127l-7.743,3.852l8.018,4.126L89.75,63.944z M108.496,63.944l-8.019-4.127l-7.743,3.852
		l8.02,4.126L108.496,63.944z M127.172,61.679l-8.554-2.857l-7.065,4.988l8.554,2.856L127.172,61.679z M80.953,71.645l-7.579-4.884
		l-8.079,3.084l7.58,4.884L80.953,71.645z M111.373,74.729l7.58-4.884l-8.079-3.084l-7.579,4.884L111.373,74.729z M99.75,71.944
		l-8.018-4.127l-7.743,3.852l8.018,4.126L99.75,71.944z"/>
</g>
</svg>
